HIERARCHY
ROOT Hips
{
	OFFSET -0.001795 -0.223333 0.028219
	CHANNELS 6 Xposition Yposition Zposition Zrotation Yrotation Xrotation 
	JOINT LeftUpLeg
	{
		OFFSET 0.069520 -0.091406 -0.006815
		CHANNELS 3 Zrotation Yrotation Xrotation
		JOINT LeftLeg
		{
			OFFSET 0.034277 -0.375199 -0.004496
			CHANNELS 3 Zrotation Yrotation Xrotation
			JOINT LeftFoot
			{
				OFFSET -0.013596 -0.397961 -0.043693
				CHANNELS 3 Zrotation Yrotation Xrotation
				JOINT LeftToe
				{
					OFFSET 0.026358 -0.055791 0.119288
					CHANNELS 3 Zrotation Yrotation Xrotation
					End Site
					{
						OFFSET 0.000000 0.000000 0.000000
					}
				}
			}
		}
	}
	JOINT RightUpLeg
	{
		OFFSET -0.067670 -0.090522 -0.004320
		CHANNELS 3 Zrotation Yrotation Xrotation
		JOINT RightLeg
		{
			OFFSET -0.038290 -0.382569 -0.008850
			CHANNELS 3 Zrotation Yrotation Xrotation
			JOINT RightFoot
			{
				OFFSET 0.015774 -0.398415 -0.042312
				CHANNELS 3 Zrotation Yrotation Xrotation
				JOINT RightToe
				{
					OFFSET -0.025372 -0.048144 0.123348
					CHANNELS 3 Zrotation Yrotation Xrotation
					End Site
					{
						OFFSET 0.000000 0.000000 0.000000
					}
				}
			}
		}
	}
	JOINT Spine
	{
		OFFSET -0.002533 0.108963 -0.026696
		CHANNELS 3 Zrotation Yrotation Xrotation
		JOINT Spine1
		{
			OFFSET 0.005487 0.135180 0.001092
			CHANNELS 3 Zrotation Yrotation Xrotation
			JOINT Spine2
			{
				OFFSET 0.001457 0.052922 0.025425
				CHANNELS 3 Zrotation Yrotation Xrotation
				JOINT Neck
				{
					OFFSET -0.002778 0.213870 -0.042857
					CHANNELS 3 Zrotation Yrotation Xrotation
					JOINT Head
					{
						OFFSET 0.005152 0.064970 0.051349
						CHANNELS 3 Zrotation Yrotation Xrotation
						End Site
						{
							OFFSET 0.000000 0.000000 0.000000
						}
					}
				}
				JOINT LeftShoulder
				{
					OFFSET 0.078845 0.121749 -0.034090
					CHANNELS 3 Zrotation Yrotation Xrotation
					JOINT LeftArm
					{
						OFFSET 0.090977 0.030469 -0.008868
						CHANNELS 3 Zrotation Yrotation Xrotation
						JOINT LeftForeArm
						{
							OFFSET 0.259612 -0.012772 -0.027456
							CHANNELS 3 Zrotation Yrotation Xrotation
							JOINT LeftHand
							{
								OFFSET 0.249234 0.008986 -0.001171
								CHANNELS 3 Zrotation Yrotation Xrotation
								End Site
								{
									OFFSET 0.000000 0.000000 0.000000
								}
							}
						}
					}
				}
				JOINT RightShoulder
				{
					OFFSET -0.081759 0.118833 -0.038615
					CHANNELS 3 Zrotation Yrotation Xrotation
					JOINT RightArm
					{
						OFFSET -0.096012 0.032551 -0.009143
						CHANNELS 3 Zrotation Yrotation Xrotation
						JOINT RightForeArm
						{
							OFFSET -0.253742 -0.013329 -0.021401
							CHANNELS 3 Zrotation Yrotation Xrotation
							JOINT RightHand
							{
								OFFSET -0.255298 0.007772 -0.005559
								CHANNELS 3 Zrotation Yrotation Xrotation
								End Site
								{
									OFFSET 0.000000 0.000000 0.000000
								}
							}
						}
					}
				}
			}
		}
	}
}
MOTION
Frames: 11
Frame Time: 0.050000
0.000000 0.911107 0.000000 -0.471936 -8.080858 -2.001005 4.045744 -0.756656 -17.593458 -1.653875 0.266127 22.111416 0.112818 -0.650612 -2.383238 0.000000 0.000000 0.000000 -2.499698 0.572468 -6.257555 -0.732146 1.938615 25.770477 -2.247383 3.159820 -12.663151 0.000000 0.000000 0.000000 4.830218 -0.950923 12.779681 -3.725164 1.371491 -23.046903 -1.853543 10.472086 23.432142 9.925516 -3.422994 -24.398880 0.000000 0.000000 0.000000 -0.347532 -36.362757 12.044636 -24.289154 -51.728174 4.830127 -132.592144 -78.497529 127.317798 0.000000 0.000000 0.000000 13.802546 19.742678 9.858508 59.577717 48.222866 19.253953 104.169570 62.567262 84.996361 0.000000 0.000000 0.000000 
-0.004629 0.910882 0.006974 -1.355739 -7.519166 -0.920029 5.001976 -0.663891 -19.287535 -0.967891 0.018768 24.128505 -1.045937 -2.706222 -1.136916 0.000000 0.000000 0.000000 -1.447299 0.652590 -6.886934 -0.796697 2.002012 26.702188 -1.614760 4.481024 -11.868207 0.000000 0.000000 0.000000 4.989448 -0.915027 11.554019 -2.936632 1.173619 -22.657690 -3.208329 10.166766 21.974898 10.537027 -3.578413 -25.214057 0.000000 0.000000 0.000000 -2.435403 -36.356901 12.609413 -22.833897 -52.211965 4.434086 -127.141441 -73.418957 116.399072 0.000000 0.000000 0.000000 16.541003 20.733948 10.958662 58.779661 46.849770 18.033883 114.954845 60.749617 94.784124 0.000000 0.000000 0.000000 
-0.008240 0.910571 0.013908 -0.703566 -5.758729 -0.840774 3.805510 -0.913785 -18.357651 -0.548310 -0.253155 24.500820 -0.287521 -2.431450 -4.089393 0.000000 0.000000 0.000000 -1.447242 0.556293 -5.875430 -1.963258 2.199364 26.023599 -1.678790 4.239444 -12.284914 0.000000 0.000000 0.000000 5.248747 -0.971805 11.673227 -4.574457 1.624458 -23.740183 -2.404538 10.056496 22.159650 10.401476 -3.542429 -24.256229 0.000000 0.000000 0.000000 -2.333101 -38.015903 13.083166 -23.717451 -50.355973 4.402967 -127.739234 -71.241153 114.648162 0.000000 0.000000 0.000000 15.681408 19.527362 10.404122 58.407149 43.438921 15.793490 118.246919 58.466855 96.972314 0.000000 0.000000 0.000000 
-0.010361 0.912062 0.020618 -0.441789 -5.515083 -0.539294 3.309139 -0.997973 -18.130555 -0.413725 -0.317027 24.800806 -0.999523 -3.317081 -2.513679 0.000000 0.000000 0.000000 -1.246601 0.616089 -6.482768 -2.758982 2.522353 26.708241 -0.866474 6.511915 -11.666968 0.000000 0.000000 0.000000 5.433902 -0.956924 11.139529 -4.466246 1.594890 -24.882712 -3.315276 10.936799 22.779578 11.736230 -4.361225 -23.530236 0.000000 0.000000 0.000000 -1.180439 -39.131190 13.058625 -23.473815 -49.463257 4.015346 -130.712050 -68.999248 115.652099 0.000000 0.000000 0.000000 15.845109 18.625470 10.234304 59.426789 43.739072 16.390098 118.032872 57.733065 96.670336 0.000000 0.000000 0.000000 
-0.011295 0.912844 0.026700 -0.130684 -5.308698 -0.929837 2.612147 -1.070261 -17.247056 -0.049771 -0.461706 25.209985 -0.676605 -2.710404 -2.758024 0.000000 0.000000 0.000000 -1.477013 0.602520 -6.416273 -3.064082 2.684975 27.362803 -0.653851 6.425936 -10.873337 0.000000 0.000000 0.000000 5.170135 -0.909818 10.947350 -5.303735 1.816769 -24.020735 -3.173700 10.325806 22.217747 11.924551 -4.470651 -23.881622 0.000000 0.000000 0.000000 -2.194587 -39.038425 13.348707 -23.092074 -47.331401 3.664723 -130.829340 -66.860044 113.723888 0.000000 0.000000 0.000000 15.274497 18.943345 10.150126 57.279635 42.345693 14.724200 122.371195 57.719854 101.667840 0.000000 0.000000 0.000000 
-0.011360 0.913173 0.031669 -0.043691 -5.096779 -1.219247 2.369573 -1.084903 -16.752916 -0.131556 -0.450231 25.142289 -0.596905 -2.582958 -2.851705 0.000000 0.000000 0.000000 -1.458159 0.615386 -6.568954 -3.233240 2.902224 28.948589 -0.421111 6.602272 -10.285702 0.000000 0.000000 0.000000 5.081659 -0.924721 11.299059 -5.654554 1.896353 -24.759753 -3.474689 10.038695 22.661917 12.188231 -4.748685 -23.583281 0.000000 0.000000 0.000000 -3.441413 -39.051549 13.699636 -22.813191 -46.860012 3.516642 -130.450730 -66.640508 113.112609 0.000000 0.000000 0.000000 15.836738 19.149704 10.353310 54.466255 42.649895 13.722015 124.744227 57.951382 104.761390 0.000000 0.000000 0.000000 
-0.010667 0.913506 0.034903 -0.036991 -5.484747 -1.554597 2.411101 -1.044097 -16.332629 -0.216932 -0.391709 25.516388 -0.403157 -2.205671 -3.022122 0.000000 0.000000 0.000000 -1.473632 0.705287 -7.559842 -3.306090 3.194273 30.925897 -0.398614 6.426608 -9.963966 0.000000 0.000000 0.000000 5.294671 -0.960960 11.639109 -5.809460 1.928647 -24.760149 -3.835604 10.042047 22.361227 12.832559 -5.221255 -23.397791 0.000000 0.000000 0.000000 -3.851387 -39.069302 13.835555 -22.287835 -46.334225 3.311842 -132.776503 -66.598187 116.044189 0.000000 0.000000 0.000000 15.785147 19.466840 10.441757 52.154679 43.712339 13.443134 124.690750 57.667039 103.879592 0.000000 0.000000 0.000000 
-0.009699 0.912903 0.036493 0.127550 -6.033224 -1.842759 2.440052 -1.021382 -16.256070 -0.572001 -0.218172 26.040880 -0.217201 -2.070292 -3.699530 0.000000 0.000000 0.000000 -1.410100 0.849127 -9.061238 -3.411776 3.634443 33.661193 -0.275805 6.585007 -9.616079 0.000000 0.000000 0.000000 5.445307 -0.989672 11.995887 -6.212224 2.028679 -24.445224 -4.160847 9.807890 22.028972 13.011896 -5.255721 -24.093031 0.000000 0.000000 0.000000 -4.453841 -39.049088 14.059204 -22.149518 -46.823778 3.407854 -133.823509 -67.455779 118.461155 0.000000 0.000000 0.000000 15.780108 19.711238 10.431801 50.573891 45.221354 13.638691 122.863103 57.016256 100.111374 0.000000 0.000000 0.000000 
-0.008605 0.911797 0.036837 0.251980 -6.588623 -1.925308 2.677742 -0.990564 -16.636152 -0.949952 -0.022022 26.974095 -0.120813 -1.827759 -3.716258 0.000000 0.000000 0.000000 -1.026878 1.109277 -11.437571 -3.424608 4.165821 37.064884 -0.014463 6.776389 -8.843127 0.000000 0.000000 0.000000 5.360517 -1.008510 12.512191 -6.205856 2.025708 -24.245688 -4.691851 9.272699 21.514084 13.214244 -5.322110 -24.829253 0.000000 0.000000 0.000000 -4.557520 -39.254326 14.279844 -22.502762 -47.762680 3.766038 -135.002635 -69.543533 122.319716 0.000000 0.000000 0.000000 15.476663 20.500512 10.565390 48.580238 46.622879 13.603355 121.076151 56.803845 96.737082 0.000000 0.000000 0.000000 
-0.008021 0.910549 0.036766 0.321649 -6.406335 -2.416008 3.073469 -0.929620 -16.605008 -1.506752 0.189478 28.301524 -0.424386 -2.589074 -3.806826 0.000000 0.000000 0.000000 -1.306396 1.254386 -13.079277 -2.619684 4.156650 39.998322 -0.469737 5.822675 -9.511692 0.000000 0.000000 0.000000 5.571515 -1.069200 13.124596 -6.508991 2.120968 -23.795532 -4.973464 8.255596 21.323549 13.044509 -5.215538 -25.461727 0.000000 0.000000 0.000000 -4.667769 -39.543976 14.519738 -22.041674 -49.008238 3.901473 -136.327485 -72.040359 126.522849 0.000000 0.000000 0.000000 14.954742 21.203117 10.593334 46.880001 47.329111 13.291734 120.117711 56.919760 94.900357 0.000000 0.000000 0.000000 
-0.008066 0.909290 0.036829 0.389348 -6.611380 -2.538744 3.425995 -0.867949 -16.597318 -2.102273 0.448603 28.612007 -0.425832 -2.715359 -4.082793 0.000000 0.000000 0.000000 -1.535498 1.310032 -13.797350 -2.633252 4.364112 41.215134 -1.278254 3.233279 -9.645598 0.000000 0.000000 0.000000 5.803330 -1.115470 13.480170 -6.687415 2.165541 -23.764066 -5.286399 7.866115 21.642602 12.768827 -5.156936 -25.426512 0.000000 0.000000 0.000000 -4.484385 -40.392402 14.845854 -20.662222 -49.455003 3.524860 -141.221815 -74.803809 134.945335 0.000000 0.000000 0.000000 14.615919 21.759638 10.680330 44.985492 48.534612 13.067206 120.677158 56.972353 95.194163 0.000000 0.000000 0.000000 
